<?xml version="1.0" encoding="utf-8" standalone="no"?>
<!DOCTYPE svg PUBLIC "-//W3C//DTD SVG 1.1//EN"
  "http://www.w3.org/Graphics/SVG/1.1/DTD/svg11.dtd">
<svg xmlns:xlink="http://www.w3.org/1999/xlink" width="203.038625pt" height="161.56pt" viewBox="0 0 203.038625 161.56" xmlns="http://www.w3.org/2000/svg" version="1.1">
 <metadata>
  <rdf:RDF xmlns:dc="http://purl.org/dc/elements/1.1/" xmlns:cc="http://creativecommons.org/ns#" xmlns:rdf="http://www.w3.org/1999/02/22-rdf-syntax-ns#">
   <cc:Work>
    <dc:type rdf:resource="http://purl.org/dc/dcmitype/StillImage"/>
    <dc:date>2025-09-16T13:31:03.745028</dc:date>
    <dc:format>image/svg+xml</dc:format>
    <dc:creator>
     <cc:Agent>
      <dc:title>Matplotlib v3.10.3, https://matplotlib.org/</dc:title>
     </cc:Agent>
    </dc:creator>
   </cc:Work>
  </rdf:RDF>
 </metadata>
 <defs>
  <style type="text/css">*{stroke-linejoin: round; stroke-linecap: butt}</style>
 </defs>
 <g id="figure_1">
  <g id="patch_1">
   <path d="M 0 161.56 
L 203.038625 161.56 
L 203.038625 0 
L 0 0 
z
" style="fill: #ffffff"/>
  </g>
  <g id="axes_1">
   <g id="patch_2">
    <path d="M 49.450625 103.28 
C 54.224281 103.28 58.803063 101.383406 62.178547 98.007922 
C 65.554031 94.632438 67.450625 90.053656 67.450625 85.28 
C 67.450625 80.506344 65.554031 75.927562 62.178547 72.552078 
C 58.803063 69.176594 54.224281 67.28 49.450625 67.28 
C 44.676969 67.28 40.098187 69.176594 36.722703 72.552078 
C 33.347219 75.927562 31.450625 80.506344 31.450625 85.28 
C 31.450625 90.053656 33.347219 94.632438 36.722703 98.007922 
C 40.098187 101.383406 44.676969 103.28 49.450625 103.28 
L 49.450625 103.28 
z
" clip-path="url(#pa05c1a3b4a)" style="fill: none; stroke: #000000; stroke-width: 2; stroke-linejoin: miter"/>
   </g>
   <g id="patch_3">
    <path d="M 157.450625 76.28 
C 158.643641 76.28 159.789015 75.805571 160.632606 74.961981 
C 161.476196 74.11839 161.950625 72.973016 161.950625 71.78 
C 161.950625 70.586984 161.476196 69.44161 160.632606 68.598019 
C 159.789015 67.754429 158.643641 67.28 157.450625 67.28 
" clip-path="url(#pa05c1a3b4a)" style="fill: none; stroke: #000000; stroke-width: 2; stroke-linejoin: miter"/>
   </g>
   <g id="patch_4">
    <path d="M 157.450625 85.28 
C 158.643641 85.28 159.789015 84.805571 160.632606 83.961981 
C 161.476196 83.11839 161.950625 81.973016 161.950625 80.78 
C 161.950625 79.586984 161.476196 78.44161 160.632606 77.598019 
C 159.789015 76.754429 158.643641 76.28 157.450625 76.28 
" clip-path="url(#pa05c1a3b4a)" style="fill: none; stroke: #000000; stroke-width: 2; stroke-linejoin: miter"/>
   </g>
   <g id="patch_5">
    <path d="M 157.450625 94.28 
C 158.643641 94.28 159.789015 93.805571 160.632606 92.961981 
C 161.476196 92.11839 161.950625 90.973016 161.950625 89.78 
C 161.950625 88.586984 161.476196 87.44161 160.632606 86.598019 
C 159.789015 85.754429 158.643641 85.28 157.450625 85.28 
" clip-path="url(#pa05c1a3b4a)" style="fill: none; stroke: #000000; stroke-width: 2; stroke-linejoin: miter"/>
   </g>
   <g id="patch_6">
    <path d="M 157.450625 103.28 
C 158.643641 103.28 159.789015 102.805571 160.632606 101.961981 
C 161.476196 101.11839 161.950625 99.973016 161.950625 98.78 
C 161.950625 97.586984 161.476196 96.44161 160.632606 95.598019 
C 159.789015 94.754429 158.643641 94.28 157.450625 94.28 
" clip-path="url(#pa05c1a3b4a)" style="fill: none; stroke: #000000; stroke-width: 2; stroke-linejoin: miter"/>
   </g>
   <g id="line2d_1">
    <path d="M 49.450625 139.28 
L 49.450625 103.28 
L 49.450625 103.28 
M 49.450625 67.28 
L 49.450625 67.28 
L 49.450625 31.28 
" clip-path="url(#pa05c1a3b4a)" style="fill: none; stroke: #000000; stroke-width: 2; stroke-linecap: round"/>
   </g>
   <g id="line2d_2">
    <path d="M 58.450625 85.28 
L 57.700625 83.416503 
L 56.950625 81.68 
L 56.200625 80.188831 
L 55.450625 79.044617 
L 54.700625 78.325334 
L 53.950625 78.08 
L 53.200625 78.325334 
L 52.450625 79.044617 
L 51.700625 80.188831 
L 50.950625 81.68 
L 50.200625 83.416503 
L 49.450625 85.28 
L 48.700625 87.143497 
L 47.950625 88.88 
L 47.200625 90.371169 
L 46.450625 91.515383 
L 45.700625 92.234666 
L 44.950625 92.48 
L 44.200625 92.234666 
L 43.450625 91.515383 
L 42.700625 90.371169 
L 41.950625 88.88 
L 41.200625 87.143497 
L 40.450625 85.28 
" clip-path="url(#pa05c1a3b4a)" style="fill: none; stroke: #000000; stroke-width: 2; stroke-linecap: round"/>
   </g>
   <g id="line2d_3">
    <path d="M 49.450625 31.28 
L 85.450625 31.28 
L 88.450625 22.28 
L 94.450625 40.28 
L 100.450625 22.28 
L 106.450625 40.28 
L 112.450625 22.28 
L 118.450625 40.28 
L 121.450625 31.28 
L 157.450625 31.28 
" clip-path="url(#pa05c1a3b4a)" style="fill: none; stroke: #000000; stroke-width: 2; stroke-linecap: round"/>
   </g>
   <g id="line2d_4">
    <path d="M 157.450625 31.28 
L 157.450625 67.28 
M 157.450625 103.28 
L 157.450625 139.28 
" clip-path="url(#pa05c1a3b4a)" style="fill: none; stroke: #000000; stroke-width: 2; stroke-linecap: round"/>
   </g>
   <g id="line2d_5">
    <path d="M 157.450625 139.28 
L 106.690625 139.28 
M 106.690625 148.28 
L 106.690625 130.28 
M 100.210625 148.28 
L 100.210625 130.28 
M 100.210625 139.28 
L 49.450625 139.28 
" clip-path="url(#pa05c1a3b4a)" style="fill: none; stroke: #000000; stroke-width: 2; stroke-linecap: round"/>
   </g>
   <g id="text_1">
    <!-- Vin -->
    <g transform="translate(38.43875 153.517812) scale(0.14 -0.14)">
     <defs>
      <path id="DejaVuSans-56" d="M 1831 0 
L 50 4666 
L 709 4666 
L 2188 738 
L 3669 4666 
L 4325 4666 
L 2547 0 
L 1831 0 
z
" transform="scale(0.015625)"/>
      <path id="DejaVuSans-69" d="M 603 3500 
L 1178 3500 
L 1178 0 
L 603 0 
L 603 3500 
z
M 603 4863 
L 1178 4863 
L 1178 4134 
L 603 4134 
L 603 4863 
z
" transform="scale(0.015625)"/>
      <path id="DejaVuSans-6e" d="M 3513 2113 
L 3513 0 
L 2938 0 
L 2938 2094 
Q 2938 2591 2744 2837 
Q 2550 3084 2163 3084 
Q 1697 3084 1428 2787 
Q 1159 2491 1159 1978 
L 1159 0 
L 581 0 
L 581 3500 
L 1159 3500 
L 1159 2956 
Q 1366 3272 1645 3428 
Q 1925 3584 2291 3584 
Q 2894 3584 3203 3211 
Q 3513 2838 3513 2113 
z
" transform="scale(0.015625)"/>
     </defs>
     <use xlink:href="#DejaVuSans-56"/>
     <use xlink:href="#DejaVuSans-69" transform="translate(66.158203 0)"/>
     <use xlink:href="#DejaVuSans-6e" transform="translate(93.941406 0)"/>
    </g>
   </g>
   <g id="text_2">
    <!-- R -->
    <g transform="translate(98.586719 15.768438) scale(0.14 -0.14)">
     <defs>
      <path id="DejaVuSans-52" d="M 2841 2188 
Q 3044 2119 3236 1894 
Q 3428 1669 3622 1275 
L 4263 0 
L 3584 0 
L 2988 1197 
Q 2756 1666 2539 1819 
Q 2322 1972 1947 1972 
L 1259 1972 
L 1259 0 
L 628 0 
L 628 4666 
L 2053 4666 
Q 2853 4666 3247 4331 
Q 3641 3997 3641 3322 
Q 3641 2881 3436 2590 
Q 3231 2300 2841 2188 
z
M 1259 4147 
L 1259 2491 
L 2053 2491 
Q 2509 2491 2742 2702 
Q 2975 2913 2975 3322 
Q 2975 3731 2742 3939 
Q 2509 4147 2053 4147 
L 1259 4147 
z
" transform="scale(0.015625)"/>
     </defs>
     <use xlink:href="#DejaVuSans-52"/>
    </g>
   </g>
   <g id="text_3">
    <!-- L -->
    <g transform="translate(146.05 89.143125) scale(0.14 -0.14)">
     <defs>
      <path id="DejaVuSans-4c" d="M 628 4666 
L 1259 4666 
L 1259 531 
L 3531 531 
L 3531 0 
L 628 0 
L 628 4666 
z
" transform="scale(0.015625)"/>
     </defs>
     <use xlink:href="#DejaVuSans-4c"/>
    </g>
   </g>
   <g id="text_4">
    <!-- C -->
    <g transform="translate(98.562656 123.768437) scale(0.14 -0.14)">
     <defs>
      <path id="DejaVuSans-43" d="M 4122 4306 
L 4122 3641 
Q 3803 3938 3442 4084 
Q 3081 4231 2675 4231 
Q 1875 4231 1450 3742 
Q 1025 3253 1025 2328 
Q 1025 1406 1450 917 
Q 1875 428 2675 428 
Q 3081 428 3442 575 
Q 3803 722 4122 1019 
L 4122 359 
Q 3791 134 3420 21 
Q 3050 -91 2638 -91 
Q 1578 -91 968 557 
Q 359 1206 359 2328 
Q 359 3453 968 4101 
Q 1578 4750 2638 4750 
Q 3056 4750 3426 4639 
Q 3797 4528 4122 4306 
z
" transform="scale(0.015625)"/>
     </defs>
     <use xlink:href="#DejaVuSans-43"/>
    </g>
   </g>
   <g id="patch_7">
    <path d="M 49.450625 33.98 
C 50.166673 33.98 50.853491 33.695511 51.359813 33.189188 
C 51.866136 32.682866 52.150625 31.996048 52.150625 31.28 
C 52.150625 30.563952 51.866136 29.877134 51.359813 29.370812 
C 50.853491 28.864489 50.166673 28.58 49.450625 28.58 
C 48.734577 28.58 48.047759 28.864489 47.541437 29.370812 
C 47.035114 29.877134 46.750625 30.563952 46.750625 31.28 
C 46.750625 31.996048 47.035114 32.682866 47.541437 33.189188 
C 48.047759 33.695511 48.734577 33.98 49.450625 33.98 
z
" clip-path="url(#pa05c1a3b4a)" style="fill: #ffffff; stroke: #000000; stroke-width: 2; stroke-linejoin: miter"/>
   </g>
   <g id="text_5">
    <!-- Vout+ -->
    <g transform="translate(0 35.143125) scale(0.14 -0.14)">
     <defs>
      <path id="DejaVuSans-6f" d="M 1959 3097 
Q 1497 3097 1228 2736 
Q 959 2375 959 1747 
Q 959 1119 1226 758 
Q 1494 397 1959 397 
Q 2419 397 2687 759 
Q 2956 1122 2956 1747 
Q 2956 2369 2687 2733 
Q 2419 3097 1959 3097 
z
M 1959 3584 
Q 2709 3584 3137 3096 
Q 3566 2609 3566 1747 
Q 3566 888 3137 398 
Q 2709 -91 1959 -91 
Q 1206 -91 779 398 
Q 353 888 353 1747 
Q 353 2609 779 3096 
Q 1206 3584 1959 3584 
z
" transform="scale(0.015625)"/>
      <path id="DejaVuSans-75" d="M 544 1381 
L 544 3500 
L 1119 3500 
L 1119 1403 
Q 1119 906 1312 657 
Q 1506 409 1894 409 
Q 2359 409 2629 706 
Q 2900 1003 2900 1516 
L 2900 3500 
L 3475 3500 
L 3475 0 
L 2900 0 
L 2900 538 
Q 2691 219 2414 64 
Q 2138 -91 1772 -91 
Q 1169 -91 856 284 
Q 544 659 544 1381 
z
M 1991 3584 
L 1991 3584 
z
" transform="scale(0.015625)"/>
      <path id="DejaVuSans-74" d="M 1172 4494 
L 1172 3500 
L 2356 3500 
L 2356 3053 
L 1172 3053 
L 1172 1153 
Q 1172 725 1289 603 
Q 1406 481 1766 481 
L 2356 481 
L 2356 0 
L 1766 0 
Q 1100 0 847 248 
Q 594 497 594 1153 
L 594 3053 
L 172 3053 
L 172 3500 
L 594 3500 
L 594 4494 
L 1172 4494 
z
" transform="scale(0.015625)"/>
      <path id="DejaVuSans-2b" d="M 2944 4013 
L 2944 2272 
L 4684 2272 
L 4684 1741 
L 2944 1741 
L 2944 0 
L 2419 0 
L 2419 1741 
L 678 1741 
L 678 2272 
L 2419 2272 
L 2419 4013 
L 2944 4013 
z
" transform="scale(0.015625)"/>
     </defs>
     <use xlink:href="#DejaVuSans-56"/>
     <use xlink:href="#DejaVuSans-6f" transform="translate(60.658203 0)"/>
     <use xlink:href="#DejaVuSans-75" transform="translate(121.839844 0)"/>
     <use xlink:href="#DejaVuSans-74" transform="translate(185.21875 0)"/>
     <use xlink:href="#DejaVuSans-2b" transform="translate(224.427734 0)"/>
    </g>
   </g>
   <g id="patch_8">
    <path d="M 157.450625 33.98 
C 158.166673 33.98 158.853491 33.695511 159.359813 33.189188 
C 159.866136 32.682866 160.150625 31.996048 160.150625 31.28 
C 160.150625 30.563952 159.866136 29.877134 159.359813 29.370812 
C 158.853491 28.864489 158.166673 28.58 157.450625 28.58 
C 156.734577 28.58 156.047759 28.864489 155.541437 29.370812 
C 155.035114 29.877134 154.750625 30.563952 154.750625 31.28 
C 154.750625 31.996048 155.035114 32.682866 155.541437 33.189188 
C 156.047759 33.695511 156.734577 33.98 157.450625 33.98 
z
" clip-path="url(#pa05c1a3b4a)" style="fill: #ffffff; stroke: #000000; stroke-width: 2; stroke-linejoin: miter"/>
   </g>
   <g id="text_6">
    <!-- Vout- -->
    <g transform="translate(163.750625 35.143125) scale(0.14 -0.14)">
     <defs>
      <path id="DejaVuSans-2d" d="M 313 2009 
L 1997 2009 
L 1997 1497 
L 313 1497 
L 313 2009 
z
" transform="scale(0.015625)"/>
     </defs>
     <use xlink:href="#DejaVuSans-56"/>
     <use xlink:href="#DejaVuSans-6f" transform="translate(60.658203 0)"/>
     <use xlink:href="#DejaVuSans-75" transform="translate(121.839844 0)"/>
     <use xlink:href="#DejaVuSans-74" transform="translate(185.21875 0)"/>
     <use xlink:href="#DejaVuSans-2d" transform="translate(224.427734 0)"/>
    </g>
   </g>
  </g>
 </g>
 <defs>
  <clipPath id="pa05c1a3b4a">
   <rect x="0.922625" y="0" width="202.116" height="161.56"/>
  </clipPath>
 </defs>
</svg>
